<svg width="80" height="75" viewBox="0 0 74 69" fill="none" xmlns="http://www.w3.org/2000/svg">
<circle cx="36" cy="36" r="25" fill="#284C96"/>
<path d="M53 30C53 34.9445 51.5338 39.778 48.7867 43.8893C46.0397 48.0005 42.1352 51.2048 37.5671 53.097C32.9989 54.9892 27.9723 55.4843 23.1227 54.5196C18.2732 53.555 13.8186 51.174 10.3223 47.6777C6.82602 44.1814 4.445 39.7268 3.48037 34.8773C2.51574 30.0277 3.01082 25.0011 4.90301 20.4329C6.7952 15.8648 9.99952 11.9603 14.1107 9.21326C18.222 6.46622 23.0555 5 28 5V30H53Z" fill="#213278"/>
<path d="M39.9282 54C36.849 59.3333 29.151 59.3333 26.0718 54L11.3494 28.5C8.27015 23.1667 12.1192 16.5 18.2776 16.5L47.7224 16.5C53.8808 16.5 57.7298 23.1667 54.6506 28.5L39.9282 54Z" fill="#ECF0F1"/>
<path d="M50.5263 52.5C46.2924 59.8333 35.7076 59.8333 31.4737 52.5L21.9474 36C17.7135 28.6667 23.0059 19.5 31.4737 19.5L50.5263 19.5C58.9941 19.5 64.2865 28.6667 60.0526 36L50.5263 52.5Z" fill="#180F50" fill-opacity="0.9"/>
</svg>
