<svg width="1280" height="277" viewBox="0 0 1280 277" fill="none" xmlns="http://www.w3.org/2000/svg">
<g clip-path="url(#clip0)">
<path d="M0 64L60 101.3C120 139 240 213 360 213.3C480 213 600 139 720 96C840 53 960 43 1080 69.3C1200 96 1320 160 1380 192L1440 224V320H1380C1320 320 1200 320 1080 320C960 320 840 320 720 320C600 320 480 320 360 320C240 320 120 320 60 320H0V64Z" fill="#3D9DF2" fill-opacity="0.25"/>
<path d="M0 23.152L60 60.452C120 98.152 240 172.152 360 172.452C480 172.152 600 98.152 720 55.152C840 12.152 960 2.15201 1080 28.452C1200 55.152 1320 119.152 1380 151.152L1440 183.152V279.152H1380C1320 279.152 1200 279.152 1080 279.152C960 279.152 840 279.152 720 279.152C600 279.152 480 279.152 360 279.152C240 279.152 120 279.152 60 279.152H0V23.152Z" fill="#3D9DF2" fill-opacity="0.25"/>
</g>
<defs>
<clipPath id="clip0">
<rect width="1440" height="320" fill="white"/>
</clipPath>
</defs>
</svg>
